<?xml version="1.0" encoding="utf-8"?>
<!-- Generator: Adobe Illustrator 25.4.1, SVG Export Plug-In . SVG Version: 6.00 Build 0)  -->
<svg version="1.1" id="Layer_1" xmlns="http://www.w3.org/2000/svg" xmlns:xlink="http://www.w3.org/1999/xlink" x="0px" y="0px"
	 viewBox="0 0 1887.4 1028" style="enable-background:new 0 0 1887.4 1028;" xml:space="preserve">
<style type="text/css">
	.st0{fill:#EF4B4B;}
	.st1{fill:#383A48;}
</style>
<g>
	<g transform="translate(-165.0 420.0) scale(1.2600435588780647 1.258579086411615) rotate(0.0 271.816 292.7905)">
		<g transform="translate(-0.0 -0.0)">
			<polygon class="st0" points="145.2,255.8 510.2,153.2 576.8,397.3 270.7,478.1 			"/>
			<path class="st1" d="M270.7,483.1c-1.8,0-3.5-0.9-4.4-2.5L140.9,258.2c-0.8-1.3-0.9-3-0.3-4.4c0.6-1.4,1.8-2.5,3.3-2.9l365-102.5
				c1.3-0.4,2.7-0.2,3.8,0.5c1.2,0.6,2,1.7,2.4,3L581.6,396c0.4,1.3,0.2,2.7-0.5,3.8c-0.7,1.2-1.8,2-3.1,2.3l-306.1,80.8
				C271.5,483,271.1,483.1,270.7,483.1z M152.7,258.9l120.5,213.4l297.5-78.5l-64-234.4L152.7,258.9z"/>
			<polygon class="st1" points="426.4,435.9 440.1,338 561.5,401.7 			"/>
			<path class="st1" d="M426.4,440.9c-1.2,0-2.4-0.4-3.3-1.3c-1.2-1.1-1.8-2.8-1.6-4.4l13.7-97.9c0.2-1.6,1.2-3.1,2.7-3.8
				c1.5-0.7,3.1-0.7,4.6,0l121.4,63.8c1.8,1,2.8,3,2.6,5c-0.2,2.1-1.7,3.8-3.7,4.3l-135.2,34.2C427.2,440.8,426.8,440.9,426.4,440.9
				z M444.1,345.7l-11.7,83.5l115.3-29.1L444.1,345.7z"/>
			<polygon class="st1" points="382,188.9 394.2,241.1 331.1,203.8 			"/>
			<path class="st1" d="M394.2,246.1c-0.9,0-1.8-0.2-2.5-0.7l-63.1-37.3c-2.4-1.4-3.1-4.5-1.7-6.9c0.7-1.1,1.7-1.9,2.9-2.2
				l50.9-14.8c1.3-0.4,2.7-0.2,3.9,0.5c1.2,0.7,2,1.9,2.3,3.2l12.3,52.1c0.5,2-0.3,4-1.9,5.2C396.3,245.8,395.3,246.1,394.2,246.1z
				 M343.6,205.3l43.1,25.5l-8.4-35.6L343.6,205.3z"/>
			<path class="st0" d="M567.2,99.8l-124.3,31.5c-37.9,9.6-60.8,49-50.9,87.9l19.6,77.6c18.7,74,92.7,119.4,164.9,101.2
				c72.2-18.3,115.7-93.4,97-167.4L653.9,153C644,114,605.1,90.2,567.2,99.8z"/>
			<path class="st1" d="M544,407c-25.7,0-50.8-7.2-72.6-20.8c-32.3-19.8-55.5-51.4-64.6-88.2l-19.6-77.6c-10.5-41.6,14-83.7,54.6-94
				L566,95c40.6-10.3,82.2,15.2,92.7,56.8l19.6,77.6c19.4,76.6-25.7,154.4-100.6,173.4C566.7,405.6,555.3,407,544,407z M567.2,99.8
				l1.2,4.8l-124.3,31.5c-35.2,8.9-56.5,45.6-47.3,81.9l19.6,77.6c8.5,34.2,30.1,63.8,60.2,82.2c30,18.4,65.1,23.9,98.7,15.4
				c69.5-17.6,111.4-90,93.3-161.3L649,154.3c-9.2-36.2-45.3-58.4-80.5-49.5L567.2,99.8z"/>
			<path class="st0" d="M651.8,140.6l23,90.8c6.9,27.2,5.3,56-4.8,82.2c-4.4,11.5-10.3,22.4-17.6,32.3h-0.1l-7.2-1.4l-87.4-17.2
				l-29.8-5.8l-110.2-21.6l-5.5-1.1l-2.1-0.4l-23-90.8c-0.8-3-1.3-6-1.7-9c-0.4-3.3-0.6-6.7-0.5-10c0.6-29.6,19.4-55.8,47.2-66
				c2.3-0.8,4.6-1.5,6.9-2.1l125.7-31.8c1.2-0.3,2.3-0.6,3.5-0.8c0.9-0.2,1.8-0.3,2.7-0.5C607.5,81.6,642.6,104.6,651.8,140.6z"/>
			<path class="st1" d="M652.3,350.9h-0.7c-0.1,0-0.3,0-0.4-0.1L409,303.3c-1.9-0.4-3.4-1.8-3.9-3.7l-23-90.8
				c-0.8-3.2-1.4-6.4-1.8-9.6c-4.1-35.4,16.5-69.1,50-81.4c2.4-0.9,4.9-1.6,7.4-2.3l125.7-31.8c1.3-0.3,2.6-0.6,3.8-0.9
				c0.9-0.2,1.9-0.4,2.8-0.5c39.2-6.2,76.7,18.5,86.5,57l0,0l23,90.8c7.2,28.2,5.4,58-5,85.2c-4.6,11.9-10.7,23.2-18.3,33.5
				C655.3,350.1,653.8,350.9,652.3,350.9z M414.1,294.1l4.6,0.9l231.4,45.3c6.2-8.9,11.3-18.4,15.2-28.5
				c9.7-25.3,11.3-52.9,4.7-79.1l-23-90.8l0,0c-4-16.2-14.1-30.3-28.2-39.4c-13.9-9.1-30.7-12.7-47.1-10.1c-0.9,0.1-1.7,0.3-2.4,0.4
				c-1.1,0.2-2.2,0.5-3.3,0.7l-125.7,31.8c-2.2,0.6-4.3,1.2-6.4,2c-25.9,9.5-43.3,33.9-43.9,61.4c-0.1,3.1,0.1,6.2,0.5,9.3
				c0.3,2.8,0.9,5.6,1.6,8.4L414.1,294.1z"/>
			<path class="st0" d="M607.9-34l48.6,192c0.3,1.4,0.6,2.7,0.8,4.1c0,0.2,0.1,0.4,0.1,0.6c0.2,1.7,0.3,3.4,0.2,5.1
				c-0.6,19.9-17.1,35.5-37,35c-16.1-0.5-29.9-11.6-33.9-27.2l-48.6-192c-1.3-5.3-1.5-10.8-0.4-16.1c0.4-1.8,0.9-3.5,1.5-5.2
				c6.8-18.7,27.5-28.2,46.2-21.4C596.6-55,605-45.6,607.9-34L607.9-34z"/>
			<path class="st1" d="M621.6,207.9c-18.8,0-35.2-12.8-39.8-31l-48.6-192c-1.5-6-1.7-12.3-0.4-18.4c0.4-2,1-4,1.7-5.9
				c7.8-21.3,31.4-32.2,52.7-24.3c12.7,4.7,22.3,15.3,25.6,28.4l48.6,192c0.4,1.5,0.7,3,0.9,4.6c0,0.2,0.1,0.5,0.1,0.7
				c0.2,1.9,0.3,3.9,0.3,5.8c-0.1,3.8-0.7,7.6-1.9,11.3c-4.3,13.5-15.2,23.9-29,27.4C628.5,207.5,625,207.9,621.6,207.9z
				 M573.1-56.2c-2.6,0-5.2,0.3-7.7,1c-9.9,2.5-18,9.8-21.5,19.4c-0.5,1.4-1,2.9-1.3,4.4c-1,4.6-0.9,9.4,0.3,13.9l48.6,192
				c4.2,16.6,21.1,26.7,37.7,22.5c10.4-2.6,18.7-10.5,22-20.7c0.9-2.8,1.4-5.7,1.5-8.6c0-1.4,0-2.9-0.2-4.3c0-0.2,0-0.3-0.1-0.4
				v-0.1c-0.2-1.2-0.4-2.4-0.7-3.5l-48.6-192c-2-8-7.1-14.8-14.2-19C584.2-54.6,578.7-56.2,573.1-56.2z"/>
			<path class="st0" d="M557.9,194.1c-19.2,4.9-38.8-6.7-43.7-25.9c0-0.1,0-0.1,0-0.2L462.1-38c-4.9-19.3,6.8-38.8,26.1-43.7
				c19.3-4.9,38.8,6.8,43.7,26.1l0,0l52.1,206C588.8,169.7,577.1,189.3,557.9,194.1z"/>
			<path class="st1" d="M549,200.2c-18.8-0.1-35.1-12.8-39.7-31l-52.1-206c-5.6-22,7.8-44.3,29.7-49.9c22-5.6,44.3,7.8,49.9,29.8
				l52.1,206c5.6,22-7.7,44.3-29.6,49.9c0,0,0,0-0.1,0l0,0C555.8,199.8,552.4,200.2,549,200.2z M497-77.9c-2.6,0-5.2,0.3-7.7,1
				c-16.6,4.2-26.7,21.1-22.5,37.7l52.1,206c4.2,16.6,21.1,26.6,37.7,22.4l0,0c16.6-4.2,26.6-21.1,22.4-37.7l-52.1-206
				c-2-8-7.1-14.8-14.2-19C507.9-76.4,502.5-77.9,497-77.9z"/>
			<path class="st0" d="M491.5,210.9c-19.2,4.9-38.8-6.7-43.7-25.9c0-0.1,0-0.1,0-0.2L387.7-52.6c-4.9-19.3,6.8-38.8,26.1-43.7
				c19.3-4.9,38.8,6.8,43.7,26.1l0,0l60.1,237.4C522.4,186.5,510.7,206.1,491.5,210.9z"/>
			<path class="st1" d="M482.6,217c-18.8-0.1-35.1-12.8-39.7-31L382.8-51.4c-5.6-22,7.8-44.3,29.8-49.9s44.3,7.8,49.8,29.8
				l60.1,237.4c5.5,21.9-7.8,44.2-29.7,49.8C489.4,216.6,486,217,482.6,217z M422.7-92.5c-2.6,0-5.2,0.3-7.7,1
				c-16.6,4.2-26.7,21.1-22.5,37.7l60.1,237.4c4.2,16.6,21.1,26.6,37.7,22.4c16.6-4.2,26.7-21.1,22.5-37.7L452.7-69.1
				C449.2-82.8,436.8-92.4,422.7-92.5z"/>
			<path class="st0" d="M431.3,237.3c-19.3,4.9-35.4,6.8-40.3-12.5L335.5,5.2c-4.9-19.3,6.8-38.8,26.1-43.7
				c19.3-4.9,38.8,6.8,43.7,26.1l52.1,206C462.2,212.9,450.5,232.5,431.3,237.3z"/>
			<path class="st1" d="M411.3,245.6c-10.9,0-21.2-4.1-25.1-19.6L330.7,6.4c-5.6-22,7.7-44.2,29.7-49.8s44.2,7.7,49.8,29.7l52.1,206
				c5.5,21.9-7.8,44.2-29.7,49.8l0,0C426.5,243.6,418.8,245.6,411.3,245.6z M370.4-34.7c-2.6,0-5.1,0.3-7.6,1
				c-16.6,4.2-26.7,21.1-22.5,37.7l55.5,219.6c3.2,12.7,11.2,14.7,34.2,8.9l0,0c16.6-4.2,26.7-21.1,22.5-37.7l-52.1-206
				C397-25,384.6-34.7,370.4-34.7z"/>
			<path class="st0" d="M566.3,103.1l-120.2,30.4c-36.7,9.3-58.7,47.6-49.1,85.4l19.1,75.5c18.2,72,89.8,116.3,159.6,98.6
				s111.7-90.6,93.5-162.6l-19.1-75.5C640.6,117.1,603,93.9,566.3,103.1z"/>
			<path class="st0" d="M538.6,293c-15.5-92.3-103.7-50.7-129.1-73.2l-60.8-53.3c-17.4-14.9-43.5-12.9-58.4,4.5s-12.9,43.5,4.5,58.4
				c0,0,138.4,132.4,206,164.9"/>
			<path class="st1" d="M500.8,399.3c-0.8,0-1.5-0.2-2.2-0.5c-28.4-13.7-72-45.7-129.4-95.3c-41.5-35.9-75.7-68.4-77.8-70.3
				c-19.5-16.7-21.7-46-5-65.5c16.7-19.5,46-21.7,65.5-5l0,0l60.8,53.3c7,6.2,21,6.7,37.2,7.2c34.8,1.2,82.5,2.8,93.6,69
				c0.5,2.7-1.4,5.3-4.1,5.8c-2.7,0.5-5.3-1.4-5.8-4.1c-9.8-58.1-49.2-59.4-84.1-60.6c-18.1-0.6-33.8-1.1-43.5-9.7l-60.7-53.3
				c-15.3-13-38.2-11.2-51.3,4c-13.1,15.3-11.3,38.3,4,51.4c0,0,0,0,0,0l0.2,0.2c1.4,1.3,138.6,132.2,204.7,164
				c2.5,1.2,3.5,4.2,2.3,6.7c0,0,0,0,0,0C504.4,398.3,502.6,399.4,500.8,399.3z"/>
		</g>
	</g>
	<g transform="translate(298.0 351.0) scale(0.705122288878634 0.706334481844686) rotate(0.0 541.75 377.3)">
		<g transform="translate(-0.0 -0.0)">
			<ellipse class="st0" cx="420.1" cy="402.4" rx="116.1" ry="116.3"/>
			<path class="st1" d="M420.1,572c-93.5,0-169.6-76.1-169.6-169.6s76.1-169.6,169.6-169.6s169.6,76.1,169.6,169.6
				S513.6,572,420.1,572z M420.1,242.8c-88,0-159.6,71.6-159.6,159.6S332.1,562,420.1,562s159.6-71.6,159.6-159.6
				S508.1,242.8,420.1,242.8L420.1,242.8z"/>
			<ellipse class="st1" cx="505.5" cy="280.6" rx="3.5" ry="3.5"/>
			<ellipse class="st1" cx="505.5" cy="305.3" rx="3.5" ry="3.5"/>
			<ellipse class="st1" cx="505.5" cy="330" rx="3.5" ry="3.5"/>
			<ellipse class="st1" cx="505.5" cy="354.6" rx="3.5" ry="3.5"/>
			<ellipse class="st1" cx="505.5" cy="379.3" rx="3.5" ry="3.5"/>
			<ellipse class="st1" cx="505.5" cy="404" rx="3.5" ry="3.5"/>
			<ellipse class="st1" cx="505.5" cy="428.6" rx="3.5" ry="3.5"/>
			<ellipse class="st1" cx="505.5" cy="453.3" rx="3.5" ry="3.5"/>
			<ellipse class="st1" cx="505.5" cy="478" rx="3.5" ry="3.5"/>
			<ellipse class="st1" cx="505.5" cy="502.6" rx="3.5" ry="3.5"/>
			<ellipse class="st1" cx="505.5" cy="527.3" rx="3.5" ry="3.5"/>
			<ellipse class="st1" cx="480.8" cy="280.6" rx="3.5" ry="3.5"/>
			<ellipse class="st1" cx="480.8" cy="305.3" rx="3.5" ry="3.5"/>
			<ellipse class="st1" cx="480.8" cy="330" rx="3.5" ry="3.5"/>
			<ellipse class="st1" cx="480.8" cy="354.6" rx="3.5" ry="3.5"/>
			<ellipse class="st1" cx="480.8" cy="379.3" rx="3.5" ry="3.5"/>
			<ellipse class="st1" cx="480.8" cy="404" rx="3.5" ry="3.5"/>
			<ellipse class="st1" cx="480.8" cy="428.6" rx="3.5" ry="3.5"/>
			<ellipse class="st1" cx="480.8" cy="453.3" rx="3.5" ry="3.5"/>
			<ellipse class="st1" cx="480.8" cy="478" rx="3.5" ry="3.5"/>
			<ellipse class="st1" cx="480.8" cy="502.6" rx="3.5" ry="3.5"/>
			<ellipse class="st1" cx="480.8" cy="527.3" rx="3.5" ry="3.5"/>
			<ellipse class="st1" cx="456.1" cy="280.6" rx="3.5" ry="3.5"/>
			<ellipse class="st1" cx="456.1" cy="305.3" rx="3.5" ry="3.5"/>
			<ellipse class="st1" cx="456.1" cy="330" rx="3.5" ry="3.5"/>
			<ellipse class="st1" cx="456.1" cy="354.6" rx="3.5" ry="3.5"/>
			<ellipse class="st1" cx="456.1" cy="379.3" rx="3.5" ry="3.5"/>
			<ellipse class="st1" cx="456.1" cy="404" rx="3.5" ry="3.5"/>
			<ellipse class="st1" cx="456.1" cy="428.6" rx="3.5" ry="3.5"/>
			<ellipse class="st1" cx="456.1" cy="453.3" rx="3.5" ry="3.5"/>
			<ellipse class="st1" cx="456.1" cy="478" rx="3.5" ry="3.5"/>
			<ellipse class="st1" cx="456.1" cy="502.6" rx="3.5" ry="3.5"/>
			<ellipse class="st1" cx="456.1" cy="527.3" rx="3.5" ry="3.5"/>
			<ellipse class="st1" cx="456.1" cy="552" rx="3.5" ry="3.5"/>
			<ellipse class="st1" cx="431.5" cy="280.6" rx="3.5" ry="3.5"/>
			<ellipse class="st1" cx="431.5" cy="305.3" rx="3.5" ry="3.5"/>
			<ellipse class="st1" cx="431.5" cy="330" rx="3.5" ry="3.5"/>
			<ellipse class="st1" cx="431.5" cy="354.6" rx="3.5" ry="3.5"/>
			<ellipse class="st1" cx="431.5" cy="379.3" rx="3.5" ry="3.5"/>
			<ellipse class="st1" cx="431.5" cy="404" rx="3.5" ry="3.5"/>
			<ellipse class="st1" cx="431.5" cy="428.6" rx="3.5" ry="3.5"/>
			<ellipse class="st1" cx="431.5" cy="453.3" rx="3.5" ry="3.5"/>
			<ellipse class="st1" cx="431.5" cy="478" rx="3.5" ry="3.5"/>
			<ellipse class="st1" cx="431.5" cy="502.6" rx="3.5" ry="3.5"/>
			<ellipse class="st1" cx="431.5" cy="527.3" rx="3.5" ry="3.5"/>
			<ellipse class="st1" cx="431.5" cy="552" rx="3.5" ry="3.5"/>
			<ellipse class="st1" cx="406.8" cy="280.6" rx="3.5" ry="3.5"/>
			<ellipse class="st1" cx="406.8" cy="305.3" rx="3.5" ry="3.5"/>
			<ellipse class="st1" cx="406.8" cy="330" rx="3.5" ry="3.5"/>
			<ellipse class="st1" cx="406.8" cy="354.6" rx="3.5" ry="3.5"/>
			<ellipse class="st1" cx="406.8" cy="379.3" rx="3.5" ry="3.5"/>
			<ellipse class="st1" cx="406.8" cy="404" rx="3.5" ry="3.5"/>
			<ellipse class="st1" cx="406.8" cy="428.6" rx="3.5" ry="3.5"/>
			<ellipse class="st1" cx="406.8" cy="453.3" rx="3.5" ry="3.5"/>
			<ellipse class="st1" cx="406.8" cy="478" rx="3.5" ry="3.5"/>
			<ellipse class="st1" cx="406.8" cy="502.6" rx="3.5" ry="3.5"/>
			<ellipse class="st1" cx="406.8" cy="527.3" rx="3.5" ry="3.5"/>
			<ellipse class="st1" cx="406.8" cy="552" rx="3.5" ry="3.5"/>
			<ellipse class="st1" cx="382.1" cy="280.6" rx="3.5" ry="3.5"/>
			<ellipse class="st1" cx="382.1" cy="305.3" rx="3.5" ry="3.5"/>
			<ellipse class="st1" cx="382.1" cy="330" rx="3.5" ry="3.5"/>
			<ellipse class="st1" cx="382.1" cy="354.6" rx="3.5" ry="3.5"/>
			<ellipse class="st1" cx="382.1" cy="379.3" rx="3.5" ry="3.5"/>
			<ellipse class="st1" cx="382.1" cy="404" rx="3.5" ry="3.5"/>
			<ellipse class="st1" cx="382.1" cy="428.6" rx="3.5" ry="3.5"/>
			<ellipse class="st1" cx="382.1" cy="453.3" rx="3.5" ry="3.5"/>
			<ellipse class="st1" cx="382.1" cy="478" rx="3.5" ry="3.5"/>
			<ellipse class="st1" cx="382.1" cy="502.6" rx="3.5" ry="3.5"/>
			<ellipse class="st1" cx="382.1" cy="527.3" rx="3.5" ry="3.5"/>
			<ellipse class="st1" cx="382.1" cy="552" rx="3.5" ry="3.5"/>
			<ellipse class="st1" cx="357.5" cy="280.6" rx="3.5" ry="3.5"/>
			<ellipse class="st1" cx="357.5" cy="305.3" rx="3.5" ry="3.5"/>
			<ellipse class="st1" cx="357.5" cy="330" rx="3.5" ry="3.5"/>
			<ellipse class="st1" cx="357.5" cy="354.6" rx="3.5" ry="3.5"/>
			<ellipse class="st1" cx="357.5" cy="379.3" rx="3.5" ry="3.5"/>
			<ellipse class="st1" cx="357.5" cy="404" rx="3.5" ry="3.5"/>
			<ellipse class="st1" cx="357.5" cy="428.6" rx="3.5" ry="3.5"/>
			<ellipse class="st1" cx="357.5" cy="453.3" rx="3.5" ry="3.5"/>
			<ellipse class="st1" cx="357.5" cy="478" rx="3.5" ry="3.5"/>
			<ellipse class="st1" cx="357.5" cy="502.6" rx="3.5" ry="3.5"/>
			<ellipse class="st1" cx="357.5" cy="527.3" rx="3.5" ry="3.5"/>
			<ellipse class="st1" cx="332.8" cy="280.6" rx="3.5" ry="3.5"/>
			<ellipse class="st1" cx="332.8" cy="305.3" rx="3.5" ry="3.5"/>
			<ellipse class="st1" cx="332.8" cy="330" rx="3.5" ry="3.5"/>
			<ellipse class="st1" cx="332.8" cy="354.6" rx="3.5" ry="3.5"/>
			<ellipse class="st1" cx="332.8" cy="379.3" rx="3.5" ry="3.5"/>
			<ellipse class="st1" cx="332.8" cy="404" rx="3.5" ry="3.5"/>
			<ellipse class="st1" cx="332.8" cy="428.6" rx="3.5" ry="3.5"/>
			<ellipse class="st1" cx="332.8" cy="453.3" rx="3.5" ry="3.5"/>
			<ellipse class="st1" cx="332.8" cy="478" rx="3.5" ry="3.5"/>
			<ellipse class="st1" cx="332.8" cy="502.6" rx="3.5" ry="3.5"/>
			<ellipse class="st1" cx="332.8" cy="527.3" rx="3.5" ry="3.5"/>
			<ellipse class="st1" cx="308.1" cy="305.3" rx="3.5" ry="3.5"/>
			<ellipse class="st1" cx="308.1" cy="330" rx="3.5" ry="3.5"/>
			<ellipse class="st1" cx="308.1" cy="354.6" rx="3.5" ry="3.5"/>
			<ellipse class="st1" cx="308.1" cy="379.3" rx="3.5" ry="3.5"/>
			<ellipse class="st1" cx="308.1" cy="404" rx="3.5" ry="3.5"/>
			<ellipse class="st1" cx="308.1" cy="428.6" rx="3.5" ry="3.5"/>
			<ellipse class="st1" cx="308.1" cy="453.3" rx="3.5" ry="3.5"/>
			<ellipse class="st1" cx="308.1" cy="478" rx="3.5" ry="3.5"/>
			<ellipse class="st1" cx="308.1" cy="502.6" rx="3.5" ry="3.5"/>
			<ellipse class="st1" cx="283.5" cy="330" rx="3.5" ry="3.5"/>
			<ellipse class="st1" cx="283.5" cy="354.6" rx="3.5" ry="3.5"/>
			<ellipse class="st1" cx="283.5" cy="379.3" rx="3.5" ry="3.5"/>
			<ellipse class="st1" cx="283.5" cy="404" rx="3.5" ry="3.5"/>
			<ellipse class="st1" cx="283.5" cy="428.6" rx="3.5" ry="3.5"/>
			<ellipse class="st1" cx="283.5" cy="453.3" rx="3.5" ry="3.5"/>
			<ellipse class="st1" cx="283.5" cy="478" rx="3.5" ry="3.5"/>
			<ellipse class="st1" cx="258.8" cy="404" rx="3.5" ry="3.5"/>
			<ellipse class="st0" cx="532.7" cy="344.5" rx="124.1" ry="124.3"/>
			<path class="st1" d="M532.7,525.5c-99.8,0-181-81.2-181-181s81.2-181,181-181s181,81.2,181,181S632.5,525.5,532.7,525.5z
				 M532.7,173.6c-94.3,0-171,76.7-171,171s76.7,171,171,171s171-76.7,171-171S627,173.6,532.7,173.6L532.7,173.6z"/>
			<ellipse class="st1" cx="626.5" cy="221" rx="3.5" ry="3.5"/>
			<ellipse class="st1" cx="626.5" cy="265" rx="3.5" ry="3.5"/>
			<ellipse class="st1" cx="626.5" cy="309" rx="3.5" ry="3.5"/>
			<ellipse class="st1" cx="626.5" cy="353" rx="3.5" ry="3.5"/>
			<ellipse class="st1" cx="626.5" cy="397" rx="3.5" ry="3.5"/>
			<ellipse class="st1" cx="626.5" cy="441" rx="3.5" ry="3.5"/>
			<ellipse class="st1" cx="582.5" cy="221" rx="3.5" ry="3.5"/>
			<ellipse class="st1" cx="582.5" cy="265" rx="3.5" ry="3.5"/>
			<ellipse class="st1" cx="582.5" cy="309" rx="3.5" ry="3.5"/>
			<ellipse class="st1" cx="582.5" cy="353" rx="3.5" ry="3.5"/>
			<ellipse class="st1" cx="582.5" cy="397" rx="3.5" ry="3.5"/>
			<ellipse class="st1" cx="582.5" cy="441" rx="3.5" ry="3.5"/>
			<ellipse class="st1" cx="582.5" cy="485" rx="3.5" ry="3.5"/>
			<ellipse class="st1" cx="538.5" cy="221" rx="3.5" ry="3.5"/>
			<ellipse class="st1" cx="538.5" cy="265" rx="3.5" ry="3.5"/>
			<ellipse class="st1" cx="538.5" cy="309" rx="3.5" ry="3.5"/>
			<ellipse class="st1" cx="538.5" cy="353" rx="3.5" ry="3.5"/>
			<ellipse class="st1" cx="538.5" cy="397" rx="3.5" ry="3.5"/>
			<ellipse class="st1" cx="538.5" cy="441" rx="3.5" ry="3.5"/>
			<ellipse class="st1" cx="538.5" cy="488" rx="3.5" ry="3.5"/>
			<ellipse class="st1" cx="494.5" cy="221" rx="3.5" ry="3.5"/>
			<ellipse class="st1" cx="494.5" cy="265" rx="3.5" ry="3.5"/>
			<ellipse class="st1" cx="494.5" cy="309" rx="3.5" ry="3.5"/>
			<ellipse class="st1" cx="494.5" cy="353" rx="3.5" ry="3.5"/>
			<ellipse class="st1" cx="494.5" cy="397" rx="3.5" ry="3.5"/>
			<ellipse class="st1" cx="494.5" cy="441" rx="3.5" ry="3.5"/>
			<ellipse class="st1" cx="494.5" cy="485" rx="3.5" ry="3.5"/>
			<ellipse class="st1" cx="450.5" cy="221" rx="3.5" ry="3.5"/>
			<ellipse class="st1" cx="450.5" cy="265" rx="3.5" ry="3.5"/>
			<ellipse class="st1" cx="450.5" cy="309" rx="3.5" ry="3.5"/>
			<ellipse class="st1" cx="450.5" cy="353" rx="3.5" ry="3.5"/>
			<ellipse class="st1" cx="450.5" cy="397" rx="3.5" ry="3.5"/>
			<ellipse class="st1" cx="450.5" cy="441" rx="3.5" ry="3.5"/>
			<ellipse class="st1" cx="450.5" cy="485" rx="3.5" ry="3.5"/>
			<ellipse class="st1" cx="406.5" cy="221" rx="3.5" ry="3.5"/>
			<ellipse class="st1" cx="406.5" cy="265" rx="3.5" ry="3.5"/>
			<ellipse class="st1" cx="406.5" cy="309" rx="3.5" ry="3.5"/>
			<ellipse class="st1" cx="406.5" cy="353" rx="3.5" ry="3.5"/>
			<ellipse class="st1" cx="406.5" cy="397" rx="3.5" ry="3.5"/>
			<ellipse class="st1" cx="406.5" cy="441" rx="3.5" ry="3.5"/>
			<ellipse class="st1" cx="369.5" cy="353" rx="3.5" ry="3.5"/>
			<ellipse class="st0" cx="645.4" cy="286.7" rx="132.1" ry="132.3"/>
			<path class="st1" d="M645.4,479c-106.1,0-192.3-86.3-192.3-192.3S539.4,94.4,645.4,94.4c106.1,0,192.3,86.3,192.3,192.3
				S751.5,479,645.4,479z M645.4,104.4c-100.5,0-182.3,81.8-182.3,182.3S544.9,469,645.4,469s182.3-81.8,182.3-182.3
				S746,104.4,645.4,104.4L645.4,104.4z"/>
			<ellipse class="st1" cx="720.7" cy="116.2" rx="3.5" ry="3.5"/>
			<ellipse class="st1" cx="720.7" cy="167.7" rx="3.5" ry="3.5"/>
			<ellipse class="st1" cx="720.7" cy="219.2" rx="3.5" ry="3.5"/>
			<ellipse class="st1" cx="720.7" cy="270.7" rx="3.5" ry="3.5"/>
			<ellipse class="st1" cx="720.7" cy="322.2" rx="3.5" ry="3.5"/>
			<ellipse class="st1" cx="720.7" cy="373.7" rx="3.5" ry="3.5"/>
			<ellipse class="st1" cx="720.7" cy="425.2" rx="3.5" ry="3.5"/>
			<ellipse class="st1" cx="669.2" cy="116.2" rx="3.5" ry="3.5"/>
			<ellipse class="st1" cx="669.2" cy="167.7" rx="3.5" ry="3.5"/>
			<ellipse class="st1" cx="669.2" cy="219.2" rx="3.5" ry="3.5"/>
			<ellipse class="st1" cx="669.2" cy="270.7" rx="3.5" ry="3.5"/>
			<ellipse class="st1" cx="669.2" cy="322.2" rx="3.5" ry="3.5"/>
			<ellipse class="st1" cx="669.2" cy="373.7" rx="3.5" ry="3.5"/>
			<ellipse class="st1" cx="660.7" cy="444.7" rx="3.5" ry="3.5"/>
			<ellipse class="st1" cx="617.7" cy="116.2" rx="3.5" ry="3.5"/>
			<ellipse class="st1" cx="617.7" cy="167.7" rx="3.5" ry="3.5"/>
			<ellipse class="st1" cx="617.7" cy="219.2" rx="3.5" ry="3.5"/>
			<ellipse class="st1" cx="617.7" cy="270.7" rx="3.5" ry="3.5"/>
			<ellipse class="st1" cx="617.7" cy="322.2" rx="3.5" ry="3.5"/>
			<ellipse class="st1" cx="617.7" cy="373.7" rx="3.5" ry="3.5"/>
			<ellipse class="st1" cx="617.7" cy="425.2" rx="3.5" ry="3.5"/>
			<ellipse class="st1" cx="566.2" cy="167.7" rx="3.5" ry="3.5"/>
			<ellipse class="st1" cx="566.2" cy="219.2" rx="3.5" ry="3.5"/>
			<ellipse class="st1" cx="566.2" cy="270.7" rx="3.5" ry="3.5"/>
			<ellipse class="st1" cx="566.2" cy="322.2" rx="3.5" ry="3.5"/>
			<ellipse class="st1" cx="566.2" cy="373.7" rx="3.5" ry="3.5"/>
			<ellipse class="st1" cx="566.2" cy="425.2" rx="3.5" ry="3.5"/>
			<ellipse class="st1" cx="515.7" cy="170.7" rx="3.5" ry="3.5"/>
			<ellipse class="st1" cx="514.7" cy="219.2" rx="3.5" ry="3.5"/>
			<ellipse class="st1" cx="514.7" cy="270.7" rx="3.5" ry="3.5"/>
			<ellipse class="st1" cx="514.7" cy="322.2" rx="3.5" ry="3.5"/>
			<ellipse class="st1" cx="514.7" cy="373.7" rx="3.5" ry="3.5"/>
			<ellipse class="st1" cx="471.2" cy="270.7" rx="3.5" ry="3.5"/>
			<ellipse class="st0" cx="758.1" cy="228.9" rx="140.1" ry="140.3"/>
			<path class="st1" d="M758.1,432.6c-112.3,0-203.7-91.4-203.7-203.7S645.8,25.2,758.1,25.2s203.7,91.4,203.7,203.7
				S870.4,432.6,758.1,432.6z M758.1,35.1c-106.8,0-193.7,86.9-193.7,193.7s86.9,193.8,193.7,193.8s193.7-86.9,193.7-193.7
				S864.9,35.1,758.1,35.1L758.1,35.1z"/>
			<ellipse class="st1" cx="865" cy="75.5" rx="3.5" ry="3.5"/>
			<ellipse class="st1" cx="865" cy="144.5" rx="3.5" ry="3.5"/>
			<ellipse class="st1" cx="865" cy="213.5" rx="3.5" ry="3.5"/>
			<ellipse class="st1" cx="865" cy="282.5" rx="3.5" ry="3.5"/>
			<ellipse class="st1" cx="865" cy="351.5" rx="3.5" ry="3.5"/>
			<ellipse class="st1" cx="796" cy="75.5" rx="3.5" ry="3.5"/>
			<ellipse class="st1" cx="796" cy="144.5" rx="3.5" ry="3.5"/>
			<ellipse class="st1" cx="796" cy="213.5" rx="3.5" ry="3.5"/>
			<ellipse class="st1" cx="796" cy="282.5" rx="3.5" ry="3.5"/>
			<ellipse class="st1" cx="785" cy="392.5" rx="3.5" ry="3.5"/>
			<ellipse class="st1" cx="727" cy="75.5" rx="3.5" ry="3.5"/>
			<ellipse class="st1" cx="727" cy="144.5" rx="3.5" ry="3.5"/>
			<ellipse class="st1" cx="727" cy="213.5" rx="3.5" ry="3.5"/>
			<ellipse class="st1" cx="727" cy="282.5" rx="3.5" ry="3.5"/>
			<ellipse class="st1" cx="727" cy="351.5" rx="3.5" ry="3.5"/>
			<ellipse class="st1" cx="658" cy="75.5" rx="3.5" ry="3.5"/>
			<ellipse class="st1" cx="658" cy="144.5" rx="3.5" ry="3.5"/>
			<ellipse class="st1" cx="658" cy="213.5" rx="3.5" ry="3.5"/>
			<ellipse class="st1" cx="658" cy="282.5" rx="3.5" ry="3.5"/>
			<ellipse class="st1" cx="658" cy="351.5" rx="3.5" ry="3.5"/>
			<ellipse class="st1" cx="596" cy="144.5" rx="3.5" ry="3.5"/>
			<ellipse class="st1" cx="589" cy="213.5" rx="3.5" ry="3.5"/>
			<ellipse class="st1" cx="589" cy="282.5" rx="3.5" ry="3.5"/>
			<ellipse class="st0" cx="870.8" cy="171" rx="148.1" ry="148.4"/>
			<path class="st1" d="M870.8,386.1c-118.8,0-215.1-96.3-215.1-215.1S752-44.1,870.8-44.1s215.1,96.3,215.1,215.1
				c0,57-22.7,111.8-63,152.1C982.7,363.6,927.9,386.3,870.8,386.1z M870.8-34.1c-113.1,0-205.1,92-205.1,205.1
				s92,205.1,205.1,205.1s205.1-92,205.1-205.1S983.9-34.1,870.8-34.1z"/>
			<ellipse class="st1" cx="967.5" cy="14" rx="3.5" ry="3.5"/>
			<ellipse class="st1" cx="967.5" cy="100" rx="3.5" ry="3.5"/>
			<ellipse class="st1" cx="967.5" cy="186" rx="3.5" ry="3.5"/>
			<ellipse class="st1" cx="967.5" cy="272" rx="3.5" ry="3.5"/>
			<ellipse class="st1" cx="881.5" cy="14" rx="3.5" ry="3.5"/>
			<ellipse class="st1" cx="881.5" cy="100" rx="3.5" ry="3.5"/>
			<ellipse class="st1" cx="881.5" cy="186" rx="3.5" ry="3.5"/>
			<ellipse class="st1" cx="881.5" cy="272" rx="3.5" ry="3.5"/>
			<ellipse class="st1" cx="881.5" cy="358" rx="3.5" ry="3.5"/>
			<ellipse class="st1" cx="759.2" cy="22.2" rx="3.5" ry="3.5"/>
			<ellipse class="st1" cx="795.5" cy="100" rx="3.5" ry="3.5"/>
			<ellipse class="st1" cx="795.5" cy="186" rx="3.5" ry="3.5"/>
			<ellipse class="st1" cx="795.5" cy="272" rx="3.5" ry="3.5"/>
			<ellipse class="st1" cx="800.5" cy="344.5" rx="3.5" ry="3.5"/>
			<ellipse class="st1" cx="709.5" cy="100" rx="3.5" ry="3.5"/>
			<ellipse class="st1" cx="709.5" cy="186" rx="3.5" ry="3.5"/>
			<ellipse class="st1" cx="709.5" cy="272" rx="3.5" ry="3.5"/>
			<path class="st0" d="M1204.9,113.2c0.2,122.1-98.6,221.2-220.6,221.4c-0.3,0-0.5,0-0.8,0c-122.3,0-221.5-99.2-221.5-221.5
				s99.2-221.5,221.5-221.5c2.8,0,5.5,0,8.3,0.1C1110.2-103.8,1204.9-6.4,1204.9,113.2z"/>
			<path class="st1" d="M983.5,339.7C858.4,339.7,757,238.3,757,113.2s101.4-226.5,226.5-226.5c2.8,0,5.7,0.1,8.4,0.2
				c125,4.6,222.6,109.7,217.9,234.7C1205.3,243.4,1105.3,339.7,983.5,339.7z M983.5-103.3C863.9-103.3,767-6.4,767,113.2
				s96.9,216.5,216.5,216.5c15.2,0,30.3-1.6,45.2-4.7c116.9-25,191.5-140.1,166.4-257c-20.7-96.9-104.6-167.4-203.6-171.1
				C988.9-103.3,986.1-103.3,983.5-103.3L983.5-103.3z"/>
			<ellipse class="st1" cx="1150" cy="-30.5" rx="3.5" ry="3.5"/>
			<ellipse class="st1" cx="1150" cy="106.5" rx="3.5" ry="3.5"/>
			<ellipse class="st1" cx="1150" cy="243.5" rx="3.5" ry="3.5"/>
			<ellipse class="st1" cx="1013" cy="-30.5" rx="3.5" ry="3.5"/>
			<ellipse class="st1" cx="1013" cy="106.5" rx="3.5" ry="3.5"/>
			<ellipse class="st1" cx="993.5" cy="293.2" rx="3.5" ry="3.5"/>
			<ellipse class="st1" cx="860.8" cy="-29.1" rx="3.5" ry="3.5"/>
			<ellipse class="st1" cx="820.5" cy="108.5" rx="3.5" ry="3.5"/>
			<ellipse class="st1" cx="876" cy="243.5" rx="3.5" ry="3.5"/>
			<path class="st0" d="M1329,55.3c0,103.4-67.4,191-160.6,221.4c-23.4,7.6-47.8,11.4-72.3,11.4c-128.6,0-232.9-104.2-232.9-232.9
				c0-123,95.3-223.7,216.1-232.3c5.5-0.4,11.1-0.6,16.7-0.6C1224.7-177.6,1329-73.3,1329,55.3z"/>
			<path class="st1" d="M1096.1,293.2c-131.4,0-237.9-106.6-237.9-238c0-60.3,22.9-118.4,64.1-162.4c40.9-43.9,96.9-70.6,156.7-74.8
				c5.6-0.4,11.4-0.6,17.1-0.6c131.4,0,237.9,106.5,237.9,237.9c0,102.9-66.2,194.1-164,226.1
				C1146.2,289.3,1121.2,293.3,1096.1,293.2z M1096.1-172.6c-5.5,0-11,0.2-16.4,0.6c-125.5,9.1-220,118.2-210.9,243.7
				c3.9,54.6,27.4,106,66.1,144.7c42.6,42.8,100.7,66.9,161.1,66.7c72.5,0.1,140.7-34.4,183.6-92.8
				c74.6-101.3,53.1-243.8-48.2-318.5C1192.2-157.1,1144.8-172.6,1096.1-172.6z"/>
		</g>
	</g>
	<g transform="translate(726.0 350.0) scale(1.4621409921671018 1.4621409921671018) rotate(0.0 114.9 114.9)">
		<g transform="translate(-0.0 -0.0)">
			<g id="Layer_1_1_-i2">
			</g>
			<g id="Isolation_Mode-i2">
				<g>
					<g>
						<circle class="st0" cx="235.7" cy="26.7" r="109.9"/>
						<path class="st1" d="M235.7,141.6c-63.4,0-114.9-51.5-114.9-114.9S172.3-88.2,235.7-88.2S350.6-36.7,350.6,26.7
							S299.1,141.6,235.7,141.6z M235.7-78.2c-57.8,0-104.9,47.1-104.9,104.9s47.1,104.9,104.9,104.9S340.6,84.5,340.6,26.7
							S293.5-78.2,235.7-78.2z"/>
					</g>
					<g>
						<path class="st1" d="M291.3,87.4c-1.3,0-2.6-0.5-3.5-1.5L176.5-25.5c-2-2-2-5.1,0-7.1s5.1-2,7.1,0L294.8,78.9c2,2,2,5.1,0,7.1
							C293.9,86.9,292.6,87.4,291.3,87.4z"/>
					</g>
					<g>
						<path class="st1" d="M180,87.4c-1.3,0-2.6-0.5-3.5-1.5c-2-2-2-5.1,0-7.1L287.8-32.5c2-2,5.1-2,7.1,0s2,5.1,0,7.1L183.5,85.9
							C182.6,86.9,181.3,87.4,180,87.4z"/>
					</g>
				</g>
			</g>
		</g>
	</g>
	<g transform="translate(947.0 129.0) scale(1.2195359909461647 1.2217807597082169) rotate(0.0 307.494 263.1405)">
		<g transform="translate(-0.0 -0.0)">
			<path class="st0" d="M281.2,221.1l-4.2-16.6c-9.7-38.4,13.6-77.3,51.9-87.1l125.7-31.8C493,76,532,99.2,541.7,137.5L570,249.2"/>
			<path class="st1" d="M570.1,254.3c-2.3,0-4.3-1.6-4.8-3.8L537,138.8c-9.1-35.7-45.3-57.3-81-48.3l-125.8,31.7
				c-35.7,9.1-57.3,45.3-48.3,81l4.2,16.6c0.7,2.7-0.9,5.4-3.6,6.1c-2.7,0.7-5.4-0.9-6.1-3.6l-4.2-16.6
				c-10.4-41.1,14.5-82.8,55.6-93.2l125.7-31.8c41.1-10.4,82.8,14.5,93.2,55.6L575,248c0.7,2.7-0.9,5.4-3.5,6.1c0,0,0,0-0.1,0
				C571,254.2,570.6,254.3,570.1,254.3z"/>
			<path class="st0" d="M524,212.6c-19.2,4.9-38.8-6.7-43.7-25.9c0-0.1,0-0.1,0-0.2l-52.1-206c-4.9-19.3,6.8-38.8,26.1-43.7
				s38.8,6.8,43.7,26.1l0,0l52.1,206C555,188.2,543.3,207.8,524,212.6C524,212.6,524,212.6,524,212.6z"/>
			<path class="st1" d="M515.1,218.7c-18.8,0-35.2-12.8-39.8-31l-52.1-206c-5.6-22,7.7-44.2,29.7-49.8c22-5.6,44.2,7.7,49.8,29.7
				l52.1,206c5.6,22-7.7,44.3-29.6,49.9c0,0,0,0-0.1,0l0,0C521.9,218.3,518.5,218.7,515.1,218.7z M463-59.3c-2.6,0-5.1,0.3-7.6,1
				c-16.6,4.2-26.7,21.1-22.5,37.7l52.1,206c4.2,16.6,21.1,26.7,37.7,22.5c16.6-4.2,26.6-21.1,22.4-37.7L493-35.8
				C489.6-49.6,477.2-59.3,463-59.3z"/>
			<path class="st0" d="M447.9,191c-19.2,4.9-38.8-6.7-43.7-25.9c0-0.1,0-0.1,0-0.2l-52.1-206c-4.9-19.3,6.8-38.8,26.1-43.7
				c19.3-4.9,38.8,6.8,43.7,26.1l52.1,206C478.9,166.6,467.2,186.2,447.9,191z"/>
			<path class="st1" d="M439.1,197.1c-18.8,0-35.2-12.8-39.8-31l-52.1-206c-5.7-22,7.5-44.4,29.5-50c22-5.7,44.4,7.5,50,29.5
				c0,0.1,0.1,0.3,0.1,0.4l52.1,206c5.5,21.9-7.8,44.2-29.7,49.8l0,0C445.9,196.7,442.5,197.1,439.1,197.1z M387-80.9
				c-2.6,0-5.2,0.3-7.7,1c-16.6,4.2-26.6,21.1-22.4,37.7l52.1,206c4.2,16.6,21.1,26.7,37.7,22.5l0,0c16.6-4.2,26.7-21.1,22.5-37.7
				l-52.1-206c-2-8-7.1-14.8-14.2-19C398.2-79.4,392.7-80.9,387-80.9L387-80.9z"/>
			<path class="st0" d="M381.6,207.8c-19.2,4.9-38.8-6.7-43.7-25.9c0-0.1,0-0.1,0-0.2L277.8-55.7c-4.9-19.3,6.8-38.8,26.1-43.7
				s38.8,6.8,43.7,26.1l60.1,237.4C412.5,183.4,400.9,202.9,381.6,207.8z"/>
			<path class="st1" d="M372.7,213.9c-18.8,0-35.2-12.8-39.8-31L272.8-54.5c-5.6-22,7.8-44.3,29.8-49.8s44.3,7.8,49.9,29.7
				l60.1,237.4c5.5,21.9-7.8,44.2-29.7,49.8l0,0C379.5,213.5,376.1,213.9,372.7,213.9z M312.7-95.6c-2.6,0-5.2,0.3-7.7,1
				c-16.6,4.2-26.7,21.1-22.5,37.7l60.1,237.4c4.2,16.6,21.1,26.7,37.7,22.5l0,0c16.6-4.2,26.7-21.1,22.5-37.7L342.7-72.1
				c-2-8-7.1-14.8-14.2-19C323.8-94,318.3-95.6,312.7-95.6L312.7-95.6z"/>
			<path class="st0" d="M321.4,234.2c-19.2,4.9-38.8-6.7-43.7-25.9c0-0.1,0-0.1,0-0.2l-52.1-206c-4.9-19.3,6.8-38.8,26.1-43.7
				s38.8,6.8,43.7,26.1l52.1,206C352.3,209.8,340.7,229.3,321.4,234.2z"/>
			<path class="st1" d="M312.5,240.3c-18.8-0.1-35.1-12.8-39.7-31l-52.1-206c-5.6-22,7.8-44.3,29.8-49.8s44.3,7.8,49.8,29.7l0,0
				l52.1,206c5.6,22-7.7,44.3-29.6,49.9c0,0,0,0-0.1,0l0,0C319.4,239.9,316,240.3,312.5,240.3z M260.5-37.8c-2.6,0-5.2,0.3-7.7,1
				c-16.6,4.2-26.7,21.1-22.5,37.7l52.1,206c4.2,16.6,21.1,26.6,37.7,22.4l0,0c16.6-4.2,26.6-21.1,22.4-37.7l-52.1-206
				c-2-8-7.1-14.8-14.2-19C271.5-36.2,266.1-37.8,260.5-37.8z"/>
			<path class="st0" d="M415,288.5c-23-90.8-107.5-42.1-134.7-62.5l-64.9-48.2c-18.4-13.6-44.3-9.8-57.9,8.5
				c-13.6,18.4-9.8,44.3,8.5,57.9c0.3,0.2,0.6,0.4,0.9,0.6c0,0,148.8,120.7,218.7,147.6"/>
			<path class="st1" d="M385.6,397.5c-0.6,0-1.2-0.1-1.8-0.3c-29.4-11.3-75.4-39.7-136.7-84.5c-44.3-32.4-81-62-83.2-63.8
				c-20.7-15.1-25.3-44.1-10.2-64.9c15.1-20.7,44.1-25.3,64.8-10.2l64.9,48.2c7.5,5.6,21.5,4.9,37.7,4.2
				c34.8-1.7,82.4-3.9,98.9,61.1c0.7,2.7-0.9,5.4-3.6,6.1s-5.4-0.9-6.1-3.6c-14.5-57.1-53.9-55.2-88.7-53.6
				c-18.1,0.9-33.8,1.6-44.1-6.1l-64.9-48.2c-7.8-5.7-17.6-8-27.1-6.4c-9.5,1.5-18.1,6.7-23.7,14.6c-11.8,16.3-8.1,39.1,8.1,50.9
				l0.2,0.2c1.5,1.2,148.9,120.5,217.4,146.8c2.6,1,3.9,3.9,2.9,6.5c0,0,0,0,0,0C389.5,396.3,387.7,397.5,385.6,397.5z"/>
			<path class="st0" d="M334.6,130.8l121.5-30.7c37.1-9.4,74.9,13.5,84.4,50.9l18.9,74.7c18,71.3-24.7,143.9-95.3,161.7
				c-70.6,17.9-142.7-25.7-160.7-97l-18.8-74.6C275.1,178.3,297.6,140.2,334.6,130.8z"/>
			<path class="st0" d="M477.6,161.6l276-71.6l1.1,261.3l-225.1,56.9c-54.1,15.1-112.1,7.3-160.3-21.6l-18.5-11.1"/>
			<path class="st1" d="M474.9,420.7c-38.1,0-75.4-10.2-108.1-29.7l-18.5-11.1c-2.4-1.4-3.2-4.5-1.7-6.9c1.4-2.4,4.5-3.2,6.9-1.7
				c0,0,0,0,0,0l18.5,11.1c47.1,28.1,103.6,35.6,156.4,21h0.1l221.4-55.9l-1.1-251l-269.8,70c-2.7,0.7-5.4-0.9-6.1-3.6
				s0.9-5.4,3.6-6.1l276-71.6c1.5-0.4,3.1-0.1,4.3,0.9c1.2,0.9,1.9,2.4,1.9,3.9l1.1,261.3c0,2.3-1.6,4.3-3.8,4.9l-225.1,56.9
				C512.7,418.1,493.9,420.7,474.9,420.7z"/>
		</g>
	</g>
	<polygon class="st0" points="1860.2,246.9 1887.4,239 1879.6,549.5 1849.7,556.6 	"/>
	<path class="st0" d="M27.4,745.9L0,753.1l151.3,268.6l41.1-10.8c0,0-89.2-237.3-89.2-239.2C103.3,769.9,27.4,745.9,27.4,745.9z"/>
</g>
</svg>
